<svg xmlns:xlink="http://www.w3.org/1999/xlink" width="13" height="12" viewBox="0 0 13 12" fill="none" xmlns="http://www.w3.org/2000/svg">
                                        <path d="M8.00189 0C7.6337 0 7.33522 0.298479 7.33522 0.666672C7.33522 1.03486 7.6337 1.33334 8.00189 1.33334H9.72522L3.64355 7.41499C3.38305 7.67548 3.38305 8.09783 3.64355 8.35833C3.90404 8.61883 4.32639 8.61883 4.58689 8.35833L10.6685 2.27666V3.99998C10.6685 4.36818 10.967 4.66666 11.3352 4.66666C11.7034 4.66666 12.0019 4.36818 12.0019 3.99999V0H8.00189Z" fill="#222222"></path>
                                        <path d="M10.6667 10.6667H1.33334V1.33334H5.33333C5.70152 1.33334 6 1.03486 6 0.666672C6 0.298479 5.70152 0 5.33333 0H1.33334C0.596656 0 0 0.596656 0 1.33334V10.6667C0 11.4033 0.596656 12 1.33334 12H10.6667C11.4033 12 12 11.4033 12 10.6667V6.66667C12 6.29848 11.7015 6 11.3333 6C10.9651 6 10.6667 6.29848 10.6667 6.66667V10.6667Z" fill="#222222"></path>
                                    </svg>